<?xml version="1.0" ?><!DOCTYPE svg  PUBLIC '-//W3C//DTD SVG 1.1//EN'  'http://www.w3.org/Graphics/SVG/1.1/DTD/svg11.dtd'><svg height="2048px" style="shape-rendering:geometricPrecision; text-rendering:geometricPrecision; image-rendering:optimizeQuality; fill-rule:evenodd; clip-rule:evenodd" viewBox="0 0 2048 2048" width="2048px" xml:space="preserve" xmlns="http://www.w3.org/2000/svg" xmlns:xlink="http://www.w3.org/1999/xlink"><defs><style type="text/css">
   <![CDATA[
    .fil4 {fill:none}
    .fil0 {fill:#1572B6}
    .fil1 {fill:#35A8DB}
    .fil2 {fill:#E9E9E8}
    .fil3 {fill:#FFFFFE}
   ]]>
  </style></defs><g id="Layer_x0020_1"><g id="_337846024"><polygon class="fil0" id="_337847128" points="1582.48,1627.13 1703.3,273.751 1704.88,255.999 1687.08,255.999 360.919,255.999 343.118,255.999 344.699,273.751 465.388,1627.35 466.394,1638.64 477.266,1641.65 1018.85,1792 1027.54,1792 1570.6,1641.43 1581.47,1638.42 "/><polygon class="fil1" id="_337847104" points="1599.93,351.998 1024,351.998 1024,1693.36 1491.76,1563.67 "/><g><polygon class="fil2" id="_337846984" points="1023.36,712.359 617.147,881.537 630.621,1049.03 1023.36,881.108 1441.13,702.495 1458.45,531.154 "/><polygon class="fil2" id="_337846144" points="1023.36,531.162 1026.37,531.162 1029.8,531.162 1033.22,531.162 1036.65,531.162 1040.08,531.162 1043.51,531.162 1046.94,531.162 1050.37,531.162 1053.8,531.162 1057.23,531.162 1060.66,531.162 1064.09,531.162 1067.52,531.162 1070.95,531.162 1074.38,531.162 1077.81,531.162 1081.23,531.162 1084.66,531.162 1088.09,531.162 1091.52,531.162 1094.95,531.162 1098.38,531.162 1101.81,531.162 1105.24,531.162 1108.67,531.162 1112.1,531.162 1115.53,531.162 1118.95,531.162 1122.38,531.162 1125.81,531.162 1129.24,531.162 1132.67,531.162 1136.1,531.162 1139.53,531.162 1142.96,531.162 1146.39,531.162 1149.82,531.162 1153.25,531.162 1156.68,531.162 1160.11,531.162 1163.54,531.162 1166.97,531.162 1170.39,531.162 1173.82,531.162 1177.25,531.162 1180.68,531.162 1184.11,531.162 1187.54,531.162 1190.97,531.162 1194.4,531.162 1197.83,531.162 1201.26,531.162 1204.69,531.162 1208.12,531.162 1211.55,531.162 1214.97,531.162 1218.4,531.162 1221.83,531.162 1225.26,531.162 1228.69,531.162 1232.12,531.162 1235.55,531.162 1238.98,531.162 1242.41,531.162 1245.84,531.162 1249.27,531.162 1252.7,531.162 1256.12,531.162 1259.55,531.162 1262.98,531.162 1266.41,531.162 1269.84,531.162 1273.27,531.162 1276.7,531.162 1280.13,531.162 1283.56,531.162 1286.99,531.162 1290.42,531.162 1293.85,531.162 1297.28,531.162 1300.71,531.162 1304.13,531.162 1307.56,531.162 1310.99,531.162 1314.42,531.162 1317.85,531.162 1321.28,531.162 1324.71,531.162 1328.14,531.162 1331.57,531.162 1335,531.162 1338.43,531.162 1341.86,531.162 1345.28,531.162 1348.71,531.162 1352.14,531.162 1355.57,531.162 1359,531.162 1362.43,531.162 1365.86,531.162 1369.29,531.162 1372.72,531.162 1376.15,531.162 1379.58,531.162 1383.01,531.162 1386.44,531.162 1389.87,531.162 1393.29,531.162 1396.72,531.162 1400.15,531.162 1403.58,531.162 1407.01,531.162 1410.44,531.162 1413.87,531.162 1417.3,531.162 1420.73,531.162 1424.16,531.162 1427.59,531.162 1431.02,531.162 1434.45,531.162 1437.88,531.162 1441.3,531.162 1444.73,531.162 1448.16,531.162 1451.59,531.162 1455.02,531.162 1458.45,531.162 1455.02,565.076 1451.59,598.987 1448.16,632.898 1444.73,666.82 1441.3,700.732 1441.13,702.495 1441.13,702.495 1437.88,702.495 1434.45,702.495 1431.02,702.495 1427.59,702.495 1424.16,702.495 1420.73,702.495 1417.3,702.495 1413.87,702.495 1410.44,702.495 1407.01,702.495 1403.58,702.495 1400.15,702.495 1396.72,702.495 1393.29,702.495 1389.87,702.495 1386.44,702.495 1383.01,702.495 1379.58,702.495 1376.15,702.495 1372.72,702.495 1369.29,702.495 1365.86,702.495 1362.43,702.495 1359,702.495 1355.57,702.495 1352.14,702.495 1348.71,702.495 1345.28,702.495 1341.86,702.495 1338.43,702.495 1335,702.495 1331.57,702.495 1328.14,702.495 1324.71,702.495 1321.28,702.495 1317.85,702.495 1314.42,702.495 1310.99,702.495 1307.56,702.495 1304.13,702.495 1300.71,702.495 1297.28,702.495 1293.85,702.495 1290.42,702.495 1286.99,702.495 1283.56,702.495 1280.13,702.495 1276.7,702.495 1273.27,702.495 1269.84,702.495 1266.41,702.495 1262.98,702.495 1259.55,702.495 1256.12,702.495 1252.7,702.495 1249.27,702.495 1245.84,702.495 1242.41,702.495 1238.98,702.495 1235.55,702.495 1232.12,702.495 1228.69,702.495 1225.26,702.495 1221.83,702.495 1218.4,702.495 1214.97,702.495 1211.55,702.495 1208.12,702.495 1204.69,702.495 1201.26,702.495 1197.83,702.495 1194.4,702.495 1190.97,702.495 1187.54,702.495 1184.11,702.495 1180.68,702.495 1177.25,702.495 1173.82,702.495 1170.39,702.495 1166.97,702.495 1163.54,702.495 1160.11,702.495 1156.68,702.495 1153.25,702.495 1149.82,702.495 1146.39,702.495 1142.96,702.495 1139.53,702.495 1136.1,702.495 1132.67,702.495 1129.24,702.495 1125.81,702.495 1122.38,702.495 1118.95,702.495 1115.53,702.495 1112.1,702.495 1108.67,702.495 1105.24,702.495 1101.81,702.495 1098.38,702.495 1094.95,702.495 1091.52,702.495 1088.09,702.495 1084.66,702.495 1081.23,702.495 1077.81,702.495 1074.38,702.495 1070.95,702.495 1067.52,702.495 1064.09,702.495 1060.66,702.495 1057.23,702.495 1053.8,702.495 1050.37,702.495 1047.04,702.495 1046.94,702.495 1043.51,702.495 1040.08,702.495 1036.65,702.495 1033.22,702.495 1029.8,702.495 1026.37,702.495 1023.86,702.495 1023.36,702.495 1022.94,702.495 1019.51,702.495 1016.08,702.495 1012.65,702.495 1009.22,702.495 1005.79,702.495 1002.36,702.495 998.933,702.495 995.504,702.495 992.075,702.495 988.646,702.495 985.216,702.495 981.787,702.495 978.359,702.495 974.929,702.495 971.5,702.495 968.07,702.495 964.641,702.495 961.211,702.495 957.783,702.495 954.354,702.495 950.924,702.495 947.495,702.495 944.065,702.495 940.637,702.495 937.207,702.495 933.778,702.495 930.349,702.495 926.919,702.495 923.49,702.495 920.061,702.495 916.632,702.495 913.202,702.495 909.773,702.495 906.344,702.495 902.914,702.495 899.486,702.495 896.056,702.495 892.627,702.495 889.198,702.495 885.768,702.495 882.34,702.495 878.911,702.495 875.481,702.495 872.051,702.495 868.622,702.495 865.194,702.495 861.764,702.495 858.335,702.495 854.906,702.495 851.476,702.495 848.048,702.495 844.618,702.495 841.189,702.495 837.759,702.495 834.33,702.495 830.901,702.495 827.472,702.495 824.043,702.495 820.613,702.495 817.184,702.495 813.754,702.495 810.325,702.495 806.897,702.495 803.467,702.495 800.038,702.495 796.608,702.495 793.179,702.495 789.749,702.495 786.321,702.495 782.892,702.495 779.462,702.495 776.033,702.495 772.603,702.495 769.175,702.495 765.746,702.495 762.316,702.495 758.887,702.495 755.458,702.495 752.029,702.495 748.599,702.495 745.17,702.495 741.741,702.495 738.311,702.495 734.882,702.495 731.454,702.495 728.024,702.495 724.595,702.495 721.165,702.495 717.736,702.495 714.306,702.495 710.878,702.495 707.449,702.495 704.019,702.495 700.59,702.495 697.16,702.495 693.732,702.495 690.302,702.495 686.873,702.495 683.444,702.495 680.014,702.495 676.586,702.495 673.156,702.495 669.727,702.495 666.298,702.495 662.868,702.495 659.439,702.495 656.01,702.495 652.581,702.495 649.151,702.495 645.722,702.495 642.293,702.495 638.863,702.495 635.435,702.495 632.006,702.495 628.576,702.495 625.146,702.495 621.717,702.495 618.289,702.495 614.859,702.495 611.43,702.495 608.001,702.495 604.571,702.495 601.741,702.495 601.143,697.649 597.713,669.896 594.284,642.152 590.854,614.397 587.425,586.653 583.997,558.908 580.568,531.162 583.997,531.162 587.425,531.162 590.854,531.162 594.284,531.162 597.713,531.162 601.143,531.162 604.571,531.162 608.001,531.162 611.43,531.162 614.859,531.162 618.289,531.162 621.717,531.162 625.146,531.162 628.576,531.162 632.006,531.162 635.435,531.162 638.863,531.162 642.293,531.162 645.722,531.162 649.151,531.162 652.581,531.162 656.01,531.162 659.439,531.162 662.868,531.162 666.298,531.162 669.727,531.162 673.156,531.162 676.586,531.162 680.014,531.162 683.444,531.162 686.873,531.162 690.302,531.162 693.732,531.162 697.16,531.162 700.59,531.162 704.019,531.162 707.449,531.162 710.878,531.162 714.306,531.162 717.736,531.162 721.165,531.162 724.595,531.162 728.024,531.162 731.454,531.162 734.882,531.162 738.311,531.162 741.741,531.162 745.17,531.162 748.599,531.162 752.029,531.162 755.458,531.162 758.887,531.162 762.316,531.162 765.746,531.162 769.175,531.162 772.603,531.162 776.033,531.162 779.462,531.162 782.892,531.162 786.321,531.162 789.749,531.162 793.179,531.162 796.608,531.162 800.038,531.162 803.467,531.162 806.897,531.162 810.325,531.162 813.754,531.162 817.184,531.162 820.613,531.162 824.043,531.162 827.472,531.162 830.901,531.162 834.33,531.162 837.759,531.162 841.189,531.162 844.618,531.162 848.048,531.162 851.476,531.162 854.906,531.162 858.335,531.162 861.764,531.162 865.194,531.162 868.622,531.162 872.051,531.162 875.481,531.162 878.911,531.162 882.34,531.162 885.768,531.162 889.198,531.162 892.627,531.162 896.056,531.162 899.486,531.162 902.914,531.162 906.344,531.162 909.773,531.162 913.202,531.162 916.632,531.162 920.061,531.162 923.49,531.162 926.919,531.162 930.349,531.162 933.778,531.162 937.207,531.162 940.637,531.162 944.065,531.162 947.495,531.162 950.924,531.162 954.354,531.162 957.783,531.162 961.211,531.162 964.641,531.162 968.07,531.162 971.5,531.162 974.929,531.162 978.359,531.162 981.787,531.162 985.216,531.162 988.646,531.162 992.075,531.162 995.504,531.162 998.933,531.162 1002.36,531.162 1005.79,531.162 1009.22,531.162 1012.65,531.162 1016.08,531.162 1019.51,531.162 1022.94,531.162 "/><polygon class="fil2" id="_337846384" points="617.774,881.561 1426.37,881.561 1411.64,1050.96 631.247,1049.03 "/><polygon class="fil2" id="_337846192" points="643.04,1143.39 819.921,1143.46 831.462,1281.97 1023.36,1329.56 1220.37,1274.27 1233.7,1047.76 1412.16,1044.96 1380.16,1412.88 1024,1516.85 665.275,1410.96 "/></g><g><polygon class="fil3" id="_337846792" points="1024,880.833 1441.13,702.495 1458.45,531.154 1024,712.091 "/><polygon class="fil3" id="_337846480" points="1024,531.162 1026.37,531.162 1029.8,531.162 1033.22,531.162 1036.65,531.162 1040.08,531.162 1043.51,531.162 1046.94,531.162 1050.37,531.162 1053.8,531.162 1057.23,531.162 1060.66,531.162 1064.09,531.162 1067.52,531.162 1070.95,531.162 1074.38,531.162 1077.81,531.162 1081.23,531.162 1084.66,531.162 1088.09,531.162 1091.52,531.162 1094.95,531.162 1098.38,531.162 1101.81,531.162 1105.24,531.162 1108.67,531.162 1112.1,531.162 1115.53,531.162 1118.95,531.162 1122.38,531.162 1125.81,531.162 1129.24,531.162 1132.67,531.162 1136.1,531.162 1139.53,531.162 1142.96,531.162 1146.39,531.162 1149.82,531.162 1153.25,531.162 1156.68,531.162 1160.11,531.162 1163.54,531.162 1166.97,531.162 1170.39,531.162 1173.82,531.162 1177.25,531.162 1180.68,531.162 1184.11,531.162 1187.54,531.162 1190.97,531.162 1194.4,531.162 1197.83,531.162 1201.26,531.162 1204.69,531.162 1208.12,531.162 1211.55,531.162 1214.97,531.162 1218.4,531.162 1221.83,531.162 1225.26,531.162 1228.69,531.162 1232.12,531.162 1235.55,531.162 1238.98,531.162 1242.41,531.162 1245.84,531.162 1249.27,531.162 1252.7,531.162 1256.12,531.162 1259.55,531.162 1262.98,531.162 1266.41,531.162 1269.84,531.162 1273.27,531.162 1276.7,531.162 1280.13,531.162 1283.56,531.162 1286.99,531.162 1290.42,531.162 1293.85,531.162 1297.28,531.162 1300.71,531.162 1304.13,531.162 1307.56,531.162 1310.99,531.162 1314.42,531.162 1317.85,531.162 1321.28,531.162 1324.71,531.162 1328.14,531.162 1331.57,531.162 1335,531.162 1338.43,531.162 1341.86,531.162 1345.28,531.162 1348.71,531.162 1352.14,531.162 1355.57,531.162 1359,531.162 1362.43,531.162 1365.86,531.162 1369.29,531.162 1372.72,531.162 1376.15,531.162 1379.58,531.162 1383.01,531.162 1386.44,531.162 1389.87,531.162 1393.29,531.162 1396.72,531.162 1400.15,531.162 1403.58,531.162 1407.01,531.162 1410.44,531.162 1413.87,531.162 1417.3,531.162 1420.73,531.162 1424.16,531.162 1427.59,531.162 1431.02,531.162 1434.45,531.162 1437.88,531.162 1441.3,531.162 1444.73,531.162 1448.16,531.162 1451.59,531.162 1455.02,531.162 1458.45,531.162 1455.02,565.076 1451.59,598.987 1448.16,632.898 1444.73,666.82 1441.3,700.732 1441.13,702.495 1441.13,702.495 1437.88,702.495 1434.45,702.495 1431.02,702.495 1427.59,702.495 1424.16,702.495 1420.73,702.495 1417.3,702.495 1413.87,702.495 1410.44,702.495 1407.01,702.495 1403.58,702.495 1400.15,702.495 1396.72,702.495 1393.29,702.495 1389.87,702.495 1386.44,702.495 1383.01,702.495 1379.58,702.495 1376.15,702.495 1372.72,702.495 1369.29,702.495 1365.86,702.495 1362.43,702.495 1359,702.495 1355.57,702.495 1352.14,702.495 1348.71,702.495 1345.28,702.495 1341.86,702.495 1338.43,702.495 1335,702.495 1331.57,702.495 1328.14,702.495 1324.71,702.495 1321.28,702.495 1317.85,702.495 1314.42,702.495 1310.99,702.495 1307.56,702.495 1304.13,702.495 1300.71,702.495 1297.28,702.495 1293.85,702.495 1290.42,702.495 1286.99,702.495 1283.56,702.495 1280.13,702.495 1276.7,702.495 1273.27,702.495 1269.84,702.495 1266.41,702.495 1262.98,702.495 1259.55,702.495 1256.12,702.495 1252.7,702.495 1249.27,702.495 1245.84,702.495 1242.41,702.495 1238.98,702.495 1235.55,702.495 1232.12,702.495 1228.69,702.495 1225.26,702.495 1221.83,702.495 1218.4,702.495 1214.97,702.495 1211.55,702.495 1208.12,702.495 1204.69,702.495 1201.26,702.495 1197.83,702.495 1194.4,702.495 1190.97,702.495 1187.54,702.495 1184.11,702.495 1180.68,702.495 1177.25,702.495 1173.82,702.495 1170.39,702.495 1166.97,702.495 1163.54,702.495 1160.11,702.495 1156.68,702.495 1153.25,702.495 1149.82,702.495 1146.39,702.495 1142.96,702.495 1139.53,702.495 1136.1,702.495 1132.67,702.495 1129.24,702.495 1125.81,702.495 1122.38,702.495 1118.95,702.495 1115.53,702.495 1112.1,702.495 1108.67,702.495 1105.24,702.495 1101.81,702.495 1098.38,702.495 1094.95,702.495 1091.52,702.495 1088.09,702.495 1084.66,702.495 1081.23,702.495 1077.81,702.495 1074.38,702.495 1070.95,702.495 1067.52,702.495 1064.09,702.495 1060.66,702.495 1057.23,702.495 1053.8,702.495 1050.37,702.495 1047.04,702.495 1046.94,702.495 1043.51,702.495 1040.08,702.495 1036.65,702.495 1033.22,702.495 1029.8,702.495 1026.37,702.495 1024,702.495 "/><polygon class="fil3" id="_337845784" points="1024,881.561 1426.37,881.561 1411.64,1050.96 1024,1050 "/><polygon class="fil3" id="_337845328" points="1024,1329.38 1220.37,1274.27 1233.7,1047.76 1412.16,1044.96 1380.16,1412.88 1024,1516.85 1024,1516.84 "/></g></g></g><rect class="fil4" height="2048" width="2048"/></svg>