<svg id="Layer_1" data-name="Layer 1" xmlns="http://www.w3.org/2000/svg" viewBox="0 0 280 300"><defs><style>.cls-1{fill:#febf10;}.cls-2{fill:#48b2e5;}.cls-3{fill:#ed334a;}.cls-4{fill:#010101;fill-opacity:0.25;}</style></defs><title>airtable logo</title><path class="cls-1" d="M130.17,75,61.61,103.4a4.59,4.59,0,0,0,.07,8.51l68.84,27.3a25.52,25.52,0,0,0,18.83,0l68.84-27.3a4.59,4.59,0,0,0,.07-8.51L149.7,75a25.52,25.52,0,0,0-19.53,0"/><path class="cls-2" d="M146,154.12v68.19a4.59,4.59,0,0,0,6.29,4.27L229,196.81a4.6,4.6,0,0,0,2.9-4.27v-68.2a4.6,4.6,0,0,0-6.29-4.27l-76.71,29.78a4.58,4.58,0,0,0-2.9,4.27"/><path class="cls-3" d="M128.13,157.64l-22.77,11-2.31,1.11-48,23c-3,1.47-6.94-.75-6.94-4.13v-64a4.29,4.29,0,0,1,1.47-3.08,5.33,5.33,0,0,1,1.16-.87,4.9,4.9,0,0,1,4.18-.32l72.88,28.87a4.6,4.6,0,0,1,.38,8.41"/><path class="cls-4" d="M128.13,157.64l-22.77,11L49.53,121.55a5.33,5.33,0,0,1,1.16-.87,4.9,4.9,0,0,1,4.18-.32l72.88,28.87a4.6,4.6,0,0,1,.38,8.41"/></svg>