<svg width="758" height="471" viewBox="0 0 758 471" fill="none" xmlns="http://www.w3.org/2000/svg">
<path d="M124.6 182.83H105.6V240.49H124.6V182.83Z" fill="#191A1D"/>
<path d="M635.93 179.83H616.93V240.83H635.93V179.83Z" fill="#191A1D"/>
<path d="M757.1 450.65V463.65L605.18 465.05L603.56 465.08L545.82 465.61L544.44 465.63L526.89 465.78H526.37L419.39 466.77L243.78 468.4H243.63L198.98 468.82L198.5 468.83L0.100006 470.65V455.65L46.75 427.65L140.35 426.87L142.35 426.86L143.01 426.85L145.01 426.82L189.95 426.45L191.96 426.44L192.6 426.43L194.6 426.42L209.01 426.3L209.39 426.29L244.94 425.99H245.23L522.63 423.65L529.42 423.6H530.1L535.28 423.55L572.93 423.24L574.93 423.21L576.78 423.19H577.74L589.45 423.1L591.77 423.07L594.88 423.05L604.63 422.96L620.1 422.83L622.1 422.81L625.58 422.79H626.23L700.94 422.15L757.1 450.65Z" fill="#252525"/>
<path opacity="0.2" d="M757.1 450.65V463.65L605.18 465.05L603.56 465.08L545.82 465.61L544.44 465.63L526.89 465.78H526.37L419.39 466.77L243.78 468.4H243.63L198.98 468.82L198.5 468.83L0.100006 470.65V455.65L46.75 427.65L140.35 426.87L142.35 426.86L143.01 426.85L145.01 426.82L189.95 426.45L191.96 426.44L192.6 426.43L194.6 426.42L209.01 426.3L209.39 426.29L244.94 425.99H245.23L522.63 423.65L529.42 423.6H530.1L535.28 423.55L572.93 423.24L574.93 423.21L576.78 423.19H577.74L589.45 423.1L591.77 423.07L594.88 423.05L604.63 422.96L620.1 422.83L622.1 422.81L625.58 422.79H626.23L700.94 422.15L757.1 450.65Z" fill="black"/>
<path d="M190.1 400.66V425.15C190.101 426.31 189.772 427.446 189.152 428.427C188.533 429.408 187.648 430.192 186.6 430.69C185.82 431.068 184.967 431.273 184.1 431.29L149.2 432.03C148.268 432.052 147.343 431.857 146.5 431.46C145.434 430.971 144.53 430.186 143.897 429.199C143.265 428.211 142.929 427.063 142.93 425.89V400.66H190.1Z" fill="#191A1D"/>
<path opacity="0.1" d="M190.1 400.66V425.15C190.101 426.31 189.772 427.446 189.152 428.427C188.533 429.408 187.648 430.192 186.6 430.69C185.82 431.068 184.967 431.273 184.1 431.29L149.2 432.03C148.268 432.052 147.343 431.857 146.5 431.46C145.434 430.971 144.53 430.186 143.897 429.199C143.265 428.211 142.929 427.063 142.93 425.89V400.66H190.1Z" fill="black"/>
<path d="M192.1 400.66V425.15C192.101 426.31 191.772 427.446 191.152 428.427C190.533 429.408 189.648 430.192 188.6 430.69C187.82 431.068 186.967 431.273 186.1 431.29L151.2 432.03C150.268 432.052 149.343 431.857 148.5 431.46C147.434 430.971 146.53 430.186 145.897 429.199C145.265 428.211 144.929 427.063 144.93 425.89V400.66H192.1Z" fill="#191A1D"/>
<path d="M622.1 400.66H574.93V432.16H622.1V400.66Z" fill="#191A1D"/>
<path opacity="0.1" d="M622.1 400.66H574.93V432.16H622.1V400.66Z" fill="black"/>
<path d="M620.1 400.66H572.93V432.16H620.1V400.66Z" fill="#191A1D"/>
<path opacity="0.1" d="M124.6 182.82V188.55L105.6 188.06V182.82H124.6Z" fill="black"/>
<path d="M249.66 21.4L226.83 185.4C226.685 186.448 226.16 187.405 225.353 188.089C224.547 188.774 223.517 189.137 222.46 189.11L39.66 184.37L36.19 184.28C35.5858 184.266 34.9915 184.124 34.4457 183.865C33.8999 183.605 33.4149 183.234 33.0223 182.774C32.6298 182.315 32.3386 181.777 32.1676 181.198C31.9966 180.618 31.9497 180.009 32.03 179.41L57.66 7.73002C57.8252 6.66659 58.3832 5.70375 59.2237 5.03168C60.0643 4.35962 61.1263 4.02719 62.2 4.10001L245.66 16.52C246.252 16.5543 246.83 16.7109 247.359 16.98C247.887 17.249 248.354 17.6247 248.73 18.0833C249.105 18.5418 249.382 19.0733 249.542 19.6441C249.702 20.215 249.743 20.8129 249.66 21.4Z" fill="#252525"/>
<path d="M69.93 16.16L50.6 167.49L218.6 172.82L239.26 26.82L69.93 16.16Z" fill="url(#paint0_linear)"/>
<path d="M477.94 13.82H283.93C280.986 13.82 278.6 16.2063 278.6 19.15V181.82C278.6 184.764 280.986 187.15 283.93 187.15H477.94C480.884 187.15 483.27 184.764 483.27 181.82V19.15C483.27 16.2063 480.884 13.82 477.94 13.82Z" fill="#252525"/>
<path d="M474.26 25.49H288.26V169.82H474.26V25.49Z" fill="url(#paint1_diamond)"/>
<path opacity="0.1" d="M635.93 179.82V183.61L616.93 184V179.82H635.93Z" fill="black"/>
<path d="M721.66 176.62C721.687 177.034 721.63 177.45 721.493 177.842C721.355 178.233 721.139 178.593 720.859 178.9C720.579 179.206 720.24 179.453 719.862 179.624C719.484 179.796 719.075 179.89 718.66 179.9L531.46 183.77C530.682 183.786 529.928 183.507 529.347 182.99C528.766 182.472 528.403 181.754 528.33 180.98L512.24 13.7C512.2 13.285 512.245 12.8662 512.372 12.4691C512.499 12.072 512.705 11.7047 512.978 11.3896C513.251 11.0745 513.585 10.8181 513.96 10.636C514.335 10.4539 514.744 10.3498 515.16 10.33L700.94 1.09001L702.94 0.990004C703.735 0.948117 704.515 1.21672 705.116 1.73912C705.717 2.26152 706.091 2.99688 706.16 3.79002L721.66 176.62Z" fill="#252525"/>
<path d="M522.93 20.16L692.6 11.82L706.93 163.82L538.6 167.82L522.93 20.16Z" fill="url(#paint2_linear)"/>
<path opacity="0.1" d="M721.66 176.62C721.687 177.034 721.63 177.45 721.492 177.842C721.355 178.233 721.139 178.593 720.859 178.9C720.579 179.206 720.24 179.453 719.862 179.624C719.484 179.796 719.075 179.89 718.66 179.9L700.94 1.09001L702.94 0.990004C703.735 0.948117 704.515 1.21672 705.116 1.73912C705.717 2.26152 706.091 2.99688 706.16 3.79002L721.66 176.62Z" fill="black"/>
<path opacity="0.1" d="M62.23 4.08999L39.66 184.37L36.19 184.28C35.5858 184.266 34.9915 184.124 34.4457 183.865C33.8999 183.605 33.4149 183.234 33.0223 182.774C32.6298 182.315 32.3386 181.777 32.1676 181.198C31.9966 180.618 31.9497 180.009 32.03 179.41L57.66 7.73001C57.8233 6.65923 58.3846 5.6895 59.2319 5.01467C60.0791 4.33984 61.1498 4.0096 62.23 4.08999Z" fill="black"/>
<path opacity="0.1" d="M124.6 223.41H105.6V240.49H124.6V223.41Z" fill="black"/>
<path opacity="0.1" d="M192.1 400.65V405.62L144.93 406.88V400.65H192.1Z" fill="black"/>
<path d="M275.35 229.36V397.56C275.338 398.587 274.931 399.569 274.215 400.305C273.498 401.04 272.526 401.472 271.5 401.51L79.85 406.61H79.8C78.7564 406.597 77.7592 406.177 77.0213 405.439C76.2833 404.701 75.863 403.704 75.85 402.66V229.36C75.863 228.316 76.2833 227.319 77.0213 226.581C77.7592 225.843 78.7564 225.423 79.8 225.41H271.4C272.444 225.423 273.441 225.843 274.179 226.581C274.917 227.319 275.337 228.316 275.35 229.36Z" fill="#252525"/>
<path opacity="0.1" d="M79.85 225.41V406.61H79.8C78.7564 406.597 77.7592 406.177 77.0213 405.439C76.2833 404.701 75.863 403.704 75.85 402.66V229.36C75.863 228.316 76.2833 227.319 77.0213 226.581C77.7592 225.843 78.7564 225.423 79.8 225.41H79.85Z" fill="black"/>
<path d="M88.6 236.15H266.1V384.4L88.6 388.4V236.15Z" fill="#A2E2BE"/>
<path opacity="0.1" d="M635.93 223.41H616.93V240.83H635.93V223.41Z" fill="black"/>
<path opacity="0.1" d="M620.1 400.65V407.06L572.93 405.8V400.65H620.1Z" fill="black"/>
<path d="M682.35 229.36V402.66C682.337 403.712 681.91 404.717 681.161 405.456C680.412 406.196 679.402 406.61 678.35 406.61L486.66 401.51C485.634 401.472 484.662 401.04 483.945 400.305C483.229 399.569 482.822 398.587 482.81 397.56V229.36C482.823 228.316 483.243 227.319 483.981 226.581C484.719 225.843 485.716 225.423 486.76 225.41H678.36C679.411 225.413 680.418 225.828 681.164 226.567C681.911 227.306 682.337 228.31 682.35 229.36Z" fill="#252525"/>
<path opacity="0.1" d="M682.35 229.36V402.66C682.337 403.712 681.91 404.717 681.161 405.456C680.412 406.196 679.402 406.61 678.35 406.61V225.41C679.402 225.41 680.412 225.824 681.161 226.564C681.91 227.303 682.337 228.308 682.35 229.36Z" fill="black"/>
<path d="M669.6 236.15H492.1V384.4L669.6 388.4V236.15Z" fill="#A2E2BE"/>
<path d="M477.85 229.36V397.56C477.838 398.587 477.431 399.569 476.715 400.305C475.998 401.04 475.026 401.472 474 401.51L282.35 406.61C281.298 406.61 280.288 406.196 279.539 405.456C278.79 404.717 278.363 403.712 278.35 402.66V229.36C278.363 228.316 278.783 227.319 279.521 226.581C280.259 225.843 281.256 225.423 282.3 225.41H473.9C474.944 225.423 475.941 225.843 476.679 226.581C477.417 227.319 477.837 228.316 477.85 229.36Z" fill="#252525"/>
<path d="M291.1 236.15H468.6V384.4L291.1 388.4V236.15Z" fill="#A2E2BE"/>
<path opacity="0.1" d="M757.1 450.65V463.65L605.18 465.05L603.56 465.08L545.82 465.61L544.44 465.63L526.89 465.78H526.37L419.39 466.77L243.78 468.4H243.63L198.98 468.82L198.5 468.83L0.100006 470.65V455.65L202.61 454.32H203.09L244.08 454.04H244.27L527.35 452.17H527.64L527.81 452.16H528.28L533.07 452.13H534.53L609.02 451.63L613.42 451.61L614.4 451.6L757.1 450.65Z" fill="black"/>
<path d="M381.26 240.49C409.609 240.49 432.59 217.509 432.59 189.16C432.59 160.811 409.609 137.83 381.26 137.83C352.911 137.83 329.93 160.811 329.93 189.16C329.93 217.509 352.911 240.49 381.26 240.49Z" fill="#FBBEBE"/>
<path d="M432.6 294.16C432.6 294.16 333.1 306.16 342.6 294.16C346.04 289.82 346.99 276.96 346.8 262.31C346.74 257.86 346.58 253.25 346.35 248.66C345.25 226.66 342.6 205.16 342.6 205.16C342.6 205.16 429.6 164.16 419.6 196.66C415.6 209.79 416.91 228.23 419.95 245.54C420.84 250.59 421.87 255.54 422.95 260.24C425.586 271.704 428.807 283.025 432.6 294.16Z" fill="#FBBEBE"/>
<path opacity="0.1" d="M432.6 294.16C432.6 294.16 333.1 306.16 342.6 294.16C346.04 289.82 346.99 276.96 346.8 262.31C361.97 255.83 381.27 260.66 381.27 260.66C401.59 256.61 414.62 257.4 422.95 260.24C425.586 271.704 428.807 283.025 432.6 294.16Z" fill="black"/>
<path d="M243.74 469.53V468.69L419.36 466.78L526.36 465.78H526.66L526.55 467.26L526.7 465.78H526.89V465.61L528.26 452.16L528.78 447.07L528.94 445.48L529.08 444.15L535.26 423.54L541.44 402.96L546.64 385.63L554.58 359.15C554.58 359.15 550.08 348.65 547.58 345.65C545.08 342.65 542.58 322.15 542.58 322.15C542.58 322.15 521.24 301.82 511.91 299.48C508 298.48 500.28 297.15 492.08 295.48C489.01 294.86 485.86 294.2 482.83 293.48C481.12 293.09 479.44 292.68 477.83 292.27C474.696 291.487 471.608 290.533 468.58 289.41C466.992 288.833 465.481 288.064 464.08 287.12C456.73 281.73 438.31 281.12 437.6 281.12C437.598 281.097 437.598 281.073 437.6 281.05V280.96C437.626 280.54 437.626 280.12 437.6 279.7C437.6 279.3 437.6 278.83 437.51 278.3C437.51 278.14 437.51 277.97 437.44 277.8C437.39 277.44 437.33 277.06 437.24 276.66C437.21 276.481 437.17 276.304 437.12 276.13C436.83 274.925 436.411 273.755 435.87 272.64C435.8 272.48 435.71 272.31 435.63 272.15C435.14 271.226 434.571 270.346 433.93 269.52C433.8 269.35 433.66 269.17 433.51 269C432.691 268.034 431.78 267.15 430.79 266.36C430.52 266.15 430.24 265.93 429.95 265.73C429.788 265.599 429.618 265.479 429.44 265.37L428.55 264.79L427.72 264.31C426.99 263.91 426.22 263.52 425.38 263.15C425.12 263.03 424.84 262.92 424.56 262.81C424.28 262.7 423.84 262.53 423.47 262.39H423.41L422.66 262.09C422.09 261.9 421.51 261.73 420.9 261.56L419.97 261.32L418.97 261.09L417.97 260.88C416.97 260.68 415.9 260.5 414.78 260.36L413.64 260.22L412.47 260.1L411.26 260L409.54 259.9L407.54 259.83C398.719 259.829 389.923 260.764 381.3 262.62C375.309 261.287 369.173 260.722 363.04 260.94H362.17L361.17 261H360.53L359.24 261.12C358.81 261.12 358.37 261.21 357.94 261.27C357.51 261.33 357.06 261.38 356.63 261.45L355.97 261.56C355.32 261.67 354.66 261.79 353.97 261.93C353.75 261.97 353.53 262.02 353.31 262.08C352.44 262.27 351.57 262.5 350.71 262.76C350.28 262.88 349.85 263.02 349.42 263.17C349.2 263.23 348.99 263.31 348.78 263.39L348.14 263.62L347.51 263.87L346.76 264.17C346.38 264.33 346.01 264.5 345.64 264.68C345.43 264.77 345.22 264.87 345.02 264.98C344.82 265.09 344.61 265.18 344.42 265.29C342.159 266.458 340.069 267.932 338.21 269.67L337.7 270.16L337.2 270.67C337.03 270.84 336.87 271.02 336.71 271.2C336.058 271.912 335.45 272.664 334.89 273.45C334.73 273.66 334.58 273.87 334.43 274.09C333.795 275.026 333.221 276.001 332.71 277.01C332.58 277.25 332.46 277.5 332.34 277.74C331.524 279.429 330.855 281.186 330.34 282.99C330.153 283.657 329.983 284.323 329.83 284.99C329.83 284.99 308.66 294.33 291.1 301.09C286.43 302.89 282.03 304.52 278.35 305.75C277.28 306.11 276.28 306.44 275.35 306.75C273.332 307.479 271.234 307.963 269.1 308.19C268.094 308.206 267.091 308.3 266.1 308.47C258.03 309.78 244.2 315.47 242.69 321.18C242.567 321.636 242.533 322.111 242.59 322.58C242.59 322.58 242.59 322.65 242.59 322.69C243.59 329.69 236.59 328.69 236.59 328.69C236.59 328.69 234.09 347.19 230.59 352.19C228.06 355.79 226.33 363.82 226.11 369.88C225.984 371.768 226.132 373.664 226.55 375.51C226.55 375.56 226.55 375.61 226.55 375.65C226.95 376.99 225.99 380.65 224.36 385.34C222.59 390.49 220.01 396.89 217.53 402.93C213.79 412.05 210.27 420.33 210.05 422.15C209.96 422.96 209.7 424.41 209.34 426.28C207.88 433.9 204.64 448.41 203.04 454.28C201.85 458.66 200.12 464.66 198.93 468.78C198.93 468.9 198.86 469.02 198.83 469.13L243.66 468.69V469.53H243.8H243.74Z" fill="#008037"/>
<path opacity="0.1" d="M260.1 351.66C260.1 351.66 317.1 381.16 337.6 377.66L260.1 351.66Z" fill="black"/>
<path opacity="0.1" d="M376.1 339.66C376.1 339.66 431.6 357.66 450.1 360.16C468.6 362.66 376.1 339.66 376.1 339.66Z" fill="black"/>
<path opacity="0.1" d="M437.66 281.74C408.66 287.08 354.06 285.93 330.46 285.12C339.11 254.12 381.29 264.66 381.29 264.66C433.5 254.24 437.5 275.86 437.66 281.74Z" fill="black"/>
<path d="M437.66 279.74C408.66 285.08 354.06 283.93 330.46 283.12C339.11 252.12 381.29 262.66 381.29 262.66C433.5 252.24 437.5 273.86 437.66 279.74Z" fill="#008037"/>
<path d="M591.6 416.41C591.6 416.41 625.76 411.16 626.43 426.16C627.1 441.16 609.01 451.64 609.01 451.64L591.6 416.41Z" fill="#FBBEBE"/>
<path opacity="0.1" d="M419.95 245.54C418.481 246.197 416.979 246.777 415.45 247.28C404.67 251 393.8 254.75 382.45 256.11C371.1 257.47 359.19 256.27 349.29 250.61C348.251 250.023 347.249 249.372 346.29 248.66C345.19 226.66 342.54 205.16 342.54 205.16C342.54 205.16 429.54 164.16 419.54 196.66C415.56 209.79 416.91 228.23 419.95 245.54Z" fill="black"/>
<path d="M367.18 108.93C365.753 109.307 364.257 109.345 362.813 109.041C361.368 108.737 360.014 108.1 358.86 107.18L360.94 110.07C359.714 110.211 358.472 110.083 357.301 109.695C356.13 109.306 355.058 108.666 354.16 107.82C353.971 110.407 354.079 113.007 354.48 115.57C351.038 115.736 347.65 114.673 344.92 112.57C344.867 113.472 345.091 114.369 345.563 115.14C346.035 115.91 346.732 116.518 347.56 116.88C344.103 116.467 340.613 117.326 337.743 119.297C334.872 121.267 332.817 124.215 331.96 127.59L337.18 128.07C333.078 128.946 329.396 131.193 326.74 134.44C325.14 136.44 323.92 139 324.62 141.44C325.32 143.88 328.7 145.44 330.54 143.7C327.923 146.824 326.02 150.483 324.967 154.42C323.913 158.357 323.733 162.476 324.44 166.49C324.915 168.2 325.071 169.983 324.9 171.75C324.57 173.4 323.53 174.83 323.01 176.44C322.01 179.36 322.96 182.53 323.85 185.44L328.54 200.86C330.24 206.43 331.93 212.01 334.15 217.4C335.722 220.808 337.059 224.319 338.15 227.91C339.41 232.75 339.46 238.05 342.15 242.28C343.994 244.942 346.458 247.115 349.33 248.61C359.22 254.27 371.17 255.47 382.49 254.11C393.81 252.75 404.67 249 415.44 245.28C417.833 244.559 420.129 243.552 422.28 242.28C429.73 237.4 431.39 227.42 432.78 218.63C434.33 208.83 436.4 199.05 440.07 189.83C442.25 184.34 445.07 178.77 444.59 172.89C443.98 165.08 437.8 158.75 436.27 151.07C435.758 148.503 435.782 145.858 436.34 143.3C436.814 141.776 437.08 140.195 437.13 138.6C436.96 135.38 434.32 132.9 431.84 130.83C426.46 126.337 420.907 122.09 415.18 118.09C414.89 116.09 417.61 115.23 418.84 113.65C420.58 111.42 418.78 107.88 416.14 106.84C413.5 105.8 410.54 106.48 407.79 107.17C407.969 105.762 407.689 104.335 406.992 103.099C406.294 101.863 405.217 100.885 403.919 100.311C402.621 99.7373 401.173 99.5973 399.79 99.9124C398.406 100.227 397.161 100.981 396.24 102.06C395.51 100.385 394.343 98.9376 392.862 97.8681C391.381 96.7986 389.639 96.1465 387.82 95.98C381.19 95.46 381.06 100.53 376.82 103.32C372.58 106.11 369.08 102.43 365.82 99.75C365.221 101.265 365.031 102.911 365.27 104.522C365.509 106.134 366.168 107.654 367.18 108.93Z" fill="#191A1D"/>
<path d="M616.93 446.41C616.93 446.41 616.04 448.53 614.4 451.6C611.919 456.323 608.899 460.743 605.4 464.77L605.13 465.06H603.51L545.77 465.59H544.39L544.22 465.39L533.02 452.1L528.8 447.09L528.63 446.88L528.27 446.46L528.07 446.22L527.81 445.91L519.6 436.17L522.6 423.67L527.71 402.61L527.84 402.1L528.84 398.1L529.55 395.1L531.93 385.32L540.09 351.67L554.59 359.17L569.88 386.17L578.09 400.67H582.59C583.44 400.67 585.39 402.31 587.35 404.2C588.05 404.87 588.75 405.58 589.35 406.2C591.13 408.04 592.54 409.62 592.54 409.62C592.54 409.62 599.83 409.78 601.79 415.52C601.891 415.798 601.975 416.082 602.04 416.37C602.691 418.626 603.537 420.821 604.57 422.93C605.86 425.74 607.48 428.93 609.12 432.12C612.17 437.97 615.27 443.54 616.41 445.56L616.55 445.81L616.93 446.41Z" fill="#008037"/>
<path opacity="0.1" d="M531.03 401.26L530.93 402.69V402.79L530.76 405.09L529.43 423.6L527.82 445.9L527.36 452.18L526.36 465.62V465.79L419.36 466.79L243.77 468.69V469.53H243.63V468.69V468.41L244.08 454.05L244.94 425.99L245.68 402.2L245.75 399.83C245.794 398.4 246.129 396.993 246.734 395.696C247.34 394.4 248.203 393.24 249.272 392.288C250.341 391.336 251.592 390.612 252.95 390.161C254.308 389.709 255.744 389.538 257.17 389.66C261.89 390.06 268.02 390.55 275.35 391.07L278.35 391.29C320.68 394.23 398.91 398.03 477.85 393.29C479.51 393.2 481.18 393.1 482.85 392.98C495.09 392.21 507.32 391.22 519.43 389.98C520.961 389.82 522.508 389.997 523.963 390.499C525.418 391.001 526.746 391.817 527.851 392.887C528.957 393.958 529.815 395.258 530.364 396.696C530.913 398.134 531.141 399.675 531.03 401.21V401.26Z" fill="black"/>
<path d="M243.74 469.53V468.69L419.36 466.78L526.36 465.78H526.66V465.61L527.66 452.17L528.09 446.17L529.73 423.56L531.02 405.66V405.22C531.08 404.395 531.043 403.566 530.91 402.75C530.916 402.717 530.916 402.683 530.91 402.65C530.635 400.962 529.948 399.369 528.91 398.01C527.809 396.598 526.366 395.49 524.718 394.79C523.07 394.09 521.271 393.822 519.49 394.01C507.38 395.25 495.15 396.24 482.91 397.01C481.24 397.13 479.57 397.23 477.91 397.32C398.97 402.01 320.74 398.21 278.41 395.32L275.41 395.1C268.08 394.58 261.95 394.1 257.23 393.69C254.633 393.471 252.048 394.221 249.972 395.797C247.896 397.372 246.478 399.66 245.99 402.22C245.889 402.761 245.829 403.31 245.81 403.86L245.13 426.02L244.2 454.09L243.76 468.45V468.73V469.57L243.74 469.53Z" fill="#191A1D"/>
<path opacity="0.1" d="M531.33 408.27L530.1 423.6L528.27 446.45L527.81 452.17L526.81 464.98L526.75 465.62V465.79L526.6 467.27L526.71 465.79H526.42L419.42 466.79L243.77 468.69V468.41L244.26 454.05L245.26 425.99L245.9 407.34C245.931 406.279 246.228 405.243 246.762 404.326C247.297 403.409 248.052 402.64 248.96 402.09C250.092 401.396 251.416 401.081 252.74 401.19C254.84 401.36 257.42 401.56 260.43 401.78C265.32 402.14 271.35 402.56 278.37 403C291.37 403.82 307.68 404.7 326.37 405.42C378.37 407.42 448.57 408.09 515.25 402.25C518.25 401.99 521.35 401.7 524.38 401.41C525.579 401.29 526.788 401.52 527.86 402.07C528.164 402.221 528.452 402.402 528.72 402.61C529.591 403.241 530.28 404.089 530.72 405.07C530.822 405.265 530.906 405.469 530.97 405.68C531.27 406.509 531.393 407.391 531.33 408.27Z" fill="black"/>
<path opacity="0.1" d="M192.1 421.96V425.15C192.101 426.31 191.772 427.446 191.152 428.427C190.533 429.408 189.648 430.192 188.6 430.69L148.5 431.46C147.434 430.971 146.53 430.186 145.897 429.199C145.265 428.211 144.929 427.063 144.93 425.89V422.89L192.1 421.96Z" fill="black"/>
<path d="M192.6 432.57L140.35 433.57V424.9L192.6 423.9V432.57Z" fill="#191A1D"/>
<path opacity="0.1" d="M192.6 432.57L140.35 433.57V424.9L192.6 423.9V432.57Z" fill="black"/>
<path d="M194.6 432.57L142.35 433.57V424.9L194.6 423.9V432.57Z" fill="#191A1D"/>
<g opacity="0.1">
<path opacity="0.1" d="M367.59 105.65C366.613 104.381 365.964 102.89 365.7 101.31C365.459 102.855 365.603 104.435 366.12 105.91C366.616 105.864 367.108 105.777 367.59 105.65Z" fill="black"/>
<path opacity="0.1" d="M354.89 112.29C354.701 111.064 354.578 109.829 354.52 108.59C354.52 109.82 354.52 111.06 354.52 112.3L354.89 112.29Z" fill="black"/>
<path opacity="0.1" d="M436.39 145.66C436.445 144.769 436.566 143.883 436.75 143.01C437.223 141.489 437.492 139.912 437.55 138.32C437.528 137.963 437.474 137.608 437.39 137.26C437.22 138.18 436.95 139.1 436.75 140.01C436.351 141.865 436.229 143.769 436.39 145.66Z" fill="black"/>
<path opacity="0.1" d="M415.59 114.76L416.68 115.55C417.599 114.885 418.459 114.143 419.25 113.33C419.626 112.81 419.859 112.199 419.926 111.561C419.993 110.922 419.891 110.277 419.63 109.69C419.53 109.918 419.403 110.133 419.25 110.33C418.02 111.91 415.3 112.78 415.59 114.76Z" fill="black"/>
<path opacity="0.1" d="M333.42 124.38C333.055 125.109 332.764 125.873 332.55 126.66C334.114 125.787 335.799 125.15 337.55 124.77L333.42 124.38Z" fill="black"/>
<path opacity="0.1" d="M347.21 113.5C346.553 113.138 345.925 112.727 345.33 112.27C345.305 112.666 345.335 113.063 345.42 113.45C346.017 113.422 346.615 113.438 347.21 113.5Z" fill="black"/>
<path opacity="0.1" d="M444.98 172.42C444.57 177.27 442.31 181.94 440.48 186.54C436.81 195.76 434.74 205.54 433.19 215.35C431.8 224.14 430.19 234.12 422.69 238.99C420.547 240.27 418.253 241.278 415.86 241.99C405.08 245.72 394.21 249.46 382.86 250.82C371.51 252.18 359.6 250.99 349.7 245.33C346.83 243.832 344.366 241.66 342.52 239C339.85 234.77 339.8 229.47 338.52 224.63C337.429 221.036 336.092 217.521 334.52 214.11C332.31 208.73 330.61 203.11 328.92 197.58C327.353 192.44 325.79 187.297 324.23 182.15C323.716 180.602 323.335 179.013 323.09 177.4C322.7 179.96 323.46 182.64 324.23 185.15C325.79 190.303 327.353 195.447 328.92 200.58C330.61 206.15 332.31 211.73 334.52 217.11C336.092 220.521 337.429 224.036 338.52 227.63C339.78 232.47 339.83 237.77 342.52 242C344.366 244.66 346.83 246.832 349.7 248.33C359.6 253.99 371.54 255.18 382.86 253.82C394.18 252.46 405.04 248.72 415.86 244.99C418.253 244.278 420.547 243.27 422.69 241.99C430.14 237.12 431.8 227.14 433.19 218.35C434.74 208.54 436.81 198.76 440.48 189.54C442.66 184.06 445.48 178.49 445 172.6C445 172.54 444.98 172.48 444.98 172.42Z" fill="black"/>
<path opacity="0.1" d="M325.29 168.55C325.29 168.55 325.29 168.48 325.29 168.44C325.47 166.677 325.314 164.895 324.83 163.19C324.631 162.093 324.5 160.984 324.44 159.87C324.325 161.985 324.456 164.106 324.83 166.19C324.99 166.97 325.17 167.76 325.29 168.55Z" fill="black"/>
<path opacity="0.1" d="M328.34 144.09C329.109 142.798 329.982 141.571 330.95 140.42C329.12 142.17 325.74 140.61 325.03 138.18C324.768 139.163 324.768 140.197 325.03 141.18C325.276 141.914 325.712 142.569 326.293 143.08C326.875 143.592 327.581 143.94 328.34 144.09Z" fill="black"/>
</g>
<path opacity="0.1" d="M578.1 400.66C578.1 400.66 581.27 412.16 578.1 422.16C574.93 432.16 578.1 400.66 578.1 400.66Z" fill="black"/>
<path opacity="0.1" d="M591.6 412.39C591.6 412.39 592.93 426.99 589.93 429.58C586.93 432.17 591.6 412.39 591.6 412.39Z" fill="black"/>
<path d="M92.99 259.86L194.6 258.86" stroke="#008037" stroke-width="2" stroke-miterlimit="10"/>
<path d="M92.99 272.33L194.6 271.34" stroke="#008037" stroke-width="2" stroke-miterlimit="10"/>
<path d="M92.99 284.81L194.6 283.81" stroke="#008037" stroke-width="2" stroke-miterlimit="10"/>
<defs>
<linearGradient id="paint0_linear" x1="107" y1="55.5" x2="203" y2="189.5" gradientUnits="userSpaceOnUse">
<stop stop-color="#00995E"/>
<stop offset="1" stop-color="#252525"/>
</linearGradient>
<radialGradient id="paint1_diamond" cx="0" cy="0" r="1" gradientUnits="userSpaceOnUse" gradientTransform="translate(340 55.5) rotate(45.3189) scale(190.568 245.588)">
<stop stop-color="#A2E2BE"/>
<stop offset="1" stop-color="#A2E2BE" stop-opacity="0"/>
</radialGradient>
<linearGradient id="paint2_linear" x1="663" y1="35.5" x2="548.5" y2="179" gradientUnits="userSpaceOnUse">
<stop stop-color="#00995E"/>
<stop offset="1" stop-color="#66726B" stop-opacity="0"/>
</linearGradient>
</defs>
</svg>
